<?xml version="1.0" encoding="utf-8"?>
<!-- Generator: Adobe Illustrator 16.0.3, SVG Export Plug-In . SVG Version: 6.00 Build 0)  -->
<!DOCTYPE svg PUBLIC "-//W3C//DTD SVG 1.1//EN" "http://www.w3.org/Graphics/SVG/1.1/DTD/svg11.dtd">
<svg version="1.1" id="Layer_1" xmlns="http://www.w3.org/2000/svg" xmlns:xlink="http://www.w3.org/1999/xlink" x="0px" y="0px"
	 width="119px" height="26px" viewBox="0 0 119 26" enable-background="new 0 0 119 26" xml:space="preserve">
<g>
	<path d="M16.404,19.518l-5.328,0.046l-1.032,2.865l-3.816,0.033l5.489-14.784l3.936-0.034l5.743,14.687l-3.912,0.034L16.404,19.518
		z M12.201,16.386l3.023-0.026l-1.547-4.139L12.201,16.386z"/>
	<path d="M22.541,7.584l6.624-0.057c1.584-0.014,2.875,0.411,3.875,1.274c1,0.864,1.506,2.095,1.52,3.694
		c0.01,1.104-0.247,2.039-0.768,2.803c-0.522,0.765-1.229,1.318-2.122,1.663l3.501,5.25l-4.272,0.037l-3.114-4.846l-1.344,0.012
		l0.042,4.872l-3.816,0.033L22.541,7.584z M26.416,14.343l2.399-0.021c0.688-0.006,1.19-0.17,1.508-0.493
		c0.317-0.322,0.474-0.756,0.469-1.3c-0.004-0.543-0.168-0.974-0.491-1.292c-0.323-0.317-0.828-0.473-1.516-0.467l-2.399,0.021
		L26.416,14.343z"/>
	<path d="M39.692,14.804c0.01,1.2,0.298,2.202,0.865,3.005c0.567,0.803,1.355,1.2,2.363,1.191c0.672-0.005,1.207-0.174,1.604-0.506
		c0.397-0.331,0.697-0.77,0.901-1.315l3.655,0.784c-0.373,1.299-1.076,2.358-2.108,3.174c-1.034,0.817-2.374,1.233-4.021,1.247
		c-2.048,0.018-3.746-0.679-5.094-2.092c-1.349-1.412-2.033-3.23-2.052-5.455c-0.019-2.224,0.633-4.053,1.957-5.489
		c1.323-1.435,3.008-2.162,5.057-2.18c1.648-0.014,2.996,0.379,4.043,1.177c1.046,0.799,1.768,1.845,2.163,3.138l-3.641,0.847
		c-0.213-0.542-0.521-0.975-0.923-1.3c-0.403-0.324-0.94-0.483-1.612-0.478c-1.008,0.009-1.789,0.419-2.341,1.232
		C39.952,12.598,39.682,13.604,39.692,14.804z"/>
	<path d="M63.987,7.227l0.127,14.735l-3.864,0.033l-0.05-5.832l-5.688,0.049l0.05,5.832l-3.863,0.033L50.572,7.342l3.863-0.033
		l0.048,5.591l5.688-0.049L60.123,7.26L63.987,7.227z"/>
	<path d="M70.161,21.91l-3.864,0.033L66.17,7.208l3.864-0.033L70.161,21.91z"/>
	<path d="M76.929,21.851L71.306,7.164l4.128-0.036l3.417,9.499l3.254-9.556l3.96-0.034l-5.369,14.783L76.929,21.851z"/>
	<path d="M97.874,6.934l0.028,3.312l-6.744,0.058l0.02,2.303l6.167-0.053l0.028,3.24l-6.167,0.053l0.022,2.544l6.744-0.058
		L98,21.669L87.465,21.76L87.338,7.025L97.874,6.934z"/>
	<path d="M99.793,6.917l5.567-0.048c2.304-0.02,4.125,0.632,5.465,1.957c1.339,1.324,2.019,3.106,2.038,5.346
		c0.02,2.24-0.629,4.034-1.945,5.381c-1.317,1.347-3.127,2.031-5.431,2.051l-5.567,0.048L99.793,6.917z M105.267,18.271
		c1.216-0.011,2.153-0.383,2.811-1.117c0.658-0.733,0.981-1.716,0.971-2.949c-0.011-1.248-0.352-2.232-1.021-2.955
		c-0.67-0.723-1.614-1.078-2.83-1.067l-1.583,0.014l0.07,8.087L105.267,18.271z"/>
</g>
</svg>
