<?xml version="1.0" encoding="utf-8"?>
<!-- Generator: Adobe Illustrator 16.0.3, SVG Export Plug-In . SVG Version: 6.00 Build 0)  -->
<!DOCTYPE svg PUBLIC "-//W3C//DTD SVG 1.1//EN" "http://www.w3.org/Graphics/SVG/1.1/DTD/svg11.dtd">
<svg version="1.1" id="Layer_1" xmlns="http://www.w3.org/2000/svg" xmlns:xlink="http://www.w3.org/1999/xlink" x="0px" y="0px"
	 width="152px" height="26px" viewBox="0 0 152 26" enable-background="new 0 0 152 26" xml:space="preserve">
<g>
	<path d="M13.431,22.64c-1.937,0.017-3.497-0.51-4.682-1.58c-1.186-1.07-1.787-2.613-1.804-4.629L6.87,7.72l3.84-0.033l0.072,8.375
		c0.009,1.04,0.248,1.826,0.717,2.358c0.468,0.532,1.103,0.795,1.903,0.788c0.783-0.007,1.405-0.28,1.865-0.821
		c0.459-0.54,0.684-1.33,0.675-2.37l-0.072-8.375l3.84-0.033l0.075,8.735c0.018,2-0.553,3.545-1.712,4.635
		C16.914,22.07,15.366,22.623,13.431,22.64z"/>
	<path d="M34.883,22.214l-3.12,0.027l-6.242-8.563l0.074,8.616l-3.72,0.032L21.749,7.591l3.6-0.031l5.757,8.063l-0.07-8.111
		l3.72-0.032L34.883,22.214z"/>
	<path d="M40.867,17.578l0.04,4.584l-3.815,0.033L36.964,7.46l6.456-0.056c1.584-0.014,2.875,0.415,3.875,1.286
		c1,0.872,1.507,2.124,1.521,3.755c0.014,1.616-0.472,2.869-1.456,3.757c-0.985,0.889-2.269,1.34-3.853,1.354L40.867,17.578z
		 M43.071,14.343c0.688-0.006,1.194-0.182,1.52-0.529c0.325-0.347,0.485-0.792,0.481-1.336c-0.005-0.56-0.173-1.006-0.504-1.339
		c-0.331-0.333-0.84-0.497-1.528-0.491l-2.232,0.02l0.032,3.695L43.071,14.343z"/>
	<path d="M56.82,22.265c-1.937,0.017-3.497-0.51-4.682-1.58c-1.186-1.07-1.787-2.613-1.804-4.629l-0.075-8.711l3.839-0.033
		l0.072,8.375c0.009,1.04,0.248,1.826,0.717,2.358c0.468,0.532,1.103,0.794,1.903,0.788c0.784-0.007,1.405-0.28,1.865-0.82
		c0.459-0.54,0.684-1.33,0.675-2.37l-0.072-8.375l3.84-0.033l0.075,8.735c0.018,2-0.553,3.545-1.712,4.635
		C60.303,21.695,58.756,22.249,56.82,22.265z"/>
	<path d="M74.464,14.264c0.689,0.218,1.265,0.646,1.727,1.281c0.461,0.636,0.696,1.362,0.703,2.178
		c0.012,1.328-0.412,2.352-1.27,3.071c-0.858,0.72-2.055,1.086-3.591,1.099l-6.768,0.059L65.139,7.217l6.312-0.055
		c1.536-0.013,2.743,0.316,3.621,0.989c0.878,0.673,1.322,1.665,1.334,2.977c0.006,0.784-0.18,1.453-0.559,2.008
		C75.467,13.691,75.005,14.067,74.464,14.264z M71.068,12.998c0.56-0.005,0.987-0.121,1.281-0.348
		c0.294-0.226,0.439-0.563,0.435-1.011s-0.155-0.778-0.453-0.992c-0.298-0.213-0.727-0.317-1.287-0.313l-2.208,0.019l0.023,2.664
		L71.068,12.998z M68.91,18.752l2.592-0.022c0.543-0.005,0.959-0.14,1.245-0.407s0.427-0.608,0.423-1.024
		c-0.004-0.448-0.151-0.798-0.44-1.052c-0.291-0.253-0.708-0.378-1.251-0.373l-2.592,0.022L68.91,18.752z"/>
	<path d="M78.506,7.101l3.863-0.033l0.098,11.399l6.6-0.057l0.029,3.336l-10.463,0.09L78.506,7.101z"/>
	<path d="M94.736,21.697l-3.863,0.034L90.746,6.996l3.863-0.034L94.736,21.697z"/>
	<path d="M99.857,17.237c0.164,0.495,0.464,0.876,0.898,1.144c0.434,0.269,0.955,0.4,1.563,0.395
		c0.592-0.005,1.087-0.133,1.485-0.385c0.397-0.252,0.595-0.601,0.591-1.049c-0.003-0.352-0.122-0.615-0.354-0.789
		c-0.234-0.174-0.575-0.315-1.024-0.423l-2.742-0.577c-1.058-0.246-1.954-0.675-2.687-1.284s-1.105-1.539-1.116-2.787
		c-0.013-1.439,0.525-2.6,1.614-3.481s2.44-1.329,4.057-1.343c1.6-0.014,2.895,0.332,3.885,1.035
		c0.99,0.704,1.658,1.582,2.003,2.635l-3.568,0.847c-0.147-0.399-0.403-0.741-0.765-1.026c-0.362-0.284-0.872-0.424-1.527-0.418
		c-0.544,0.005-0.991,0.125-1.341,0.359c-0.35,0.235-0.523,0.553-0.52,0.953c0.003,0.336,0.109,0.59,0.318,0.765
		c0.209,0.174,0.515,0.308,0.916,0.4l2.79,0.648c1.25,0.293,2.211,0.785,2.881,1.476c0.669,0.69,1.01,1.603,1.02,2.739
		c0.013,1.504-0.562,2.677-1.722,3.52c-1.161,0.842-2.541,1.27-4.141,1.284c-1.568,0.014-2.903-0.311-4.004-0.974
		c-1.102-0.663-1.866-1.576-2.292-2.74L99.857,17.237z"/>
	<path d="M123.215,6.715l0.127,14.735l-3.864,0.034l-0.05-5.832l-5.688,0.049l0.05,5.832l-3.864,0.034L109.8,6.831l3.864-0.034
		l0.048,5.591l5.688-0.049l-0.048-5.591L123.215,6.715z"/>
	<path d="M135.935,6.605l0.028,3.312l-6.744,0.059l0.02,2.303l6.167-0.053l0.028,3.24l-6.167,0.053l0.022,2.544l6.744-0.059
		l0.029,3.336l-10.536,0.091l-0.127-14.735L135.935,6.605z"/>
	<path d="M137.854,6.588l5.567-0.048c2.304-0.02,4.125,0.632,5.465,1.957c1.339,1.324,2.019,3.106,2.038,5.346
		c0.02,2.24-0.629,4.034-1.945,5.382c-1.317,1.347-3.127,2.031-5.431,2.051l-5.567,0.048L137.854,6.588z M143.329,17.941
		c1.215-0.01,2.152-0.382,2.81-1.116c0.658-0.733,0.981-1.716,0.971-2.949c-0.011-1.248-0.352-2.232-1.021-2.955
		c-0.67-0.723-1.614-1.078-2.829-1.068l-1.584,0.014l0.07,8.087L143.329,17.941z"/>
</g>
</svg>
